# xmcd
#
# Track frame offsets:
#	150
#	15423
#	31799
#	52210
#	69013
#	90873
#	108062
#	127769
#	145504
#	166792
#	181798
#	196419
#	208880
#	221744
#	240894
#	267647
#
# Disc length: 3574 seconds
#
# Revision: 3
# Processed by: cddbd v1.5.2PL0 Copyright (c) Steve Scherf et al.
# Submitted via: audiograbber 1.83.01
#
DISCID=c70df410
DTITLE=All Star Karaoke - ASK04V4-1
DYEAR=2003
DGENRE=Karaoke Country
TTITLE0=Brooks and Dunn - Ain't Nothing About You
TTITLE1=Tammy Cochran - Angles In Waiting
TTITLE2=Tim McGraw - Angry All The Time
TTITLE3=Carolyn Dawn Johnson - Complicated
TTITLE4=Dixie Chicks - Cowboy Take Me Away
TTITLE5=Garth Brooks - The Dance
TTITLE6=Dixie Chicks - Goodbye Earl
TTITLE7=Tim McGraw - Grown Men Don't Cry
TTITLE8=Brad Paisley - He Didn't Have To Be
TTITLE9=Kershaw And Morgan - He Drinks Tequila
TTITLE10=Cyndi Thomson - I Always Like That The Best
TTITLE11=Dolly Parton - I Will Always Love You
TTITLE12=Merle Haggard - If We Make It Through December
TTITLE13=Lonestar - I'm Already There
TTITLE14=Patty Loveless - Last Thing On My Mind
TTITLE15=Data Track - Data Track
EXTD=This appears to be the 4th revision of the CD. Noted by the number of star
EXTD=s next the the DISK ID printed on the jewel case.
EXTT0=
EXTT1=
EXTT2=
EXTT3=
EXTT4=
EXTT5=
EXTT6=
EXTT7=
EXTT8=
EXTT9=
EXTT10=
EXTT11=
EXTT12=
EXTT13=
EXTT14=
EXTT15=
PLAYORDER=
